<?xml version="1.0" encoding="UTF-8" standalone="no"?>
<!-- Created with Inkscape (http://www.inkscape.org/) -->

<svg
   xmlns:dc="http://purl.org/dc/elements/1.1/"
   xmlns:cc="http://creativecommons.org/ns#"
   xmlns:rdf="http://www.w3.org/1999/02/22-rdf-syntax-ns#"
   xmlns:svg="http://www.w3.org/2000/svg"
   xmlns="http://www.w3.org/2000/svg"
   xmlns:sodipodi="http://sodipodi.sourceforge.net/DTD/sodipodi-0.dtd"
   xmlns:inkscape="http://www.inkscape.org/namespaces/inkscape"
   width="53.543274mm"
   height="22.360237mm"
   viewBox="0 0 53.543274 22.360237"
   version="1.1"
   id="svg4544"
   sodipodi:docname="logo_in_blue.svg"
   inkscape:version="0.92.2 (5c3e80d, 2017-08-06)">
  <defs
     id="defs4538" />
  <sodipodi:namedview
     id="base"
     pagecolor="#ffffff"
     bordercolor="#666666"
     borderopacity="1.0"
     inkscape:pageopacity="0.0"
     inkscape:pageshadow="2"
     inkscape:zoom="7.9195959"
     inkscape:cx="93.23653"
     inkscape:cy="42.767046"
     inkscape:document-units="mm"
     inkscape:current-layer="layer1"
     showgrid="false"
     inkscape:pagecheckerboard="true"
     inkscape:window-width="2477"
     inkscape:window-height="1557"
     inkscape:window-x="524"
     inkscape:window-y="90"
     inkscape:window-maximized="0"
     fit-margin-top="5"
     fit-margin-left="5"
     fit-margin-right="5"
     fit-margin-bottom="5" />
  <metadata
     id="metadata4541">
    <rdf:RDF>
      <cc:Work
         rdf:about="">
        <dc:format>image/svg+xml</dc:format>
        <dc:type
           rdf:resource="http://purl.org/dc/dcmitype/StillImage" />
        <dc:title></dc:title>
      </cc:Work>
    </rdf:RDF>
  </metadata>
  <g
     inkscape:label="Layer 1"
     inkscape:groupmode="layer"
     id="layer1"
     transform="translate(-37.295326,-77.932968)">
    <path
       sodipodi:type="star"
       style="fill:#3255a4;fill-opacity:1;stroke:none;stroke-width:0.86500001;stroke-miterlimit:4;stroke-dasharray:none;stroke-dashoffset:0;stroke-opacity:1"
       id="path846"
       sodipodi:sides="3"
       sodipodi:cx="107.10826"
       sodipodi:cy="97.082382"
       sodipodi:r1="8.8306446"
       sodipodi:r2="4.4153223"
       sodipodi:arg1="0.99013882"
       sodipodi:arg2="2.0373364"
       inkscape:flatsided="false"
       inkscape:rounded="0"
       inkscape:randomized="0"
       d="m 111.95252,104.4657 -6.83027,-3.43986 -6.830262,-3.439866 6.394142,-4.195252 6.39414,-4.195253 0.43613,7.635117 z"
       inkscape:transform-center-x="-0.0093907036"
       inkscape:transform-center-y="0.050690505"
       transform="matrix(-0.14969411,-0.00880611,0.00876002,-0.15048167,89.602886,104.60815)" />
    <g
       id="g1371"
       transform="matrix(1.4880454,0,0,1,-67.624616,-4.2572647)">
      <path
         inkscape:connector-curvature="0"
         style="fill:none;fill-opacity:1;stroke:#3255a4;stroke-width:0.30000001;stroke-linecap:round;stroke-linejoin:round;stroke-miterlimit:4;stroke-dasharray:none;stroke-dashoffset:0;stroke-opacity:1"
         d="M 84.458931,96.449438 C 84.128053,96.361178 83.827,96.272918 83.827,96.184658 c 0,-0.08826 0.301053,-0.17652 0.631931,-0.26478 0.330878,-0.08826 0.631931,-0.17652 0.631931,-0.26478 0,-0.08826 -0.301053,-0.17652 -0.631931,-0.26478 -0.330878,-0.08826 -0.631931,-0.17652 -0.631931,-0.26478 0,-0.08826 0.301053,-0.17652 0.631931,-0.26478 0.330878,-0.08826 0.631931,-0.17652 0.631931,-0.26478 0,-0.08826 -0.301053,-0.17652 -0.631931,-0.26478 -0.330878,-0.08826 -0.631931,-0.17652 -0.631931,-0.26478 0,-0.08826 0.301053,-0.17652 0.631931,-0.26478 0.330878,-0.08826 0.631931,-0.17652 0.631931,-0.26478 0,-0.08826 -0.301053,-0.17652 -0.631931,-0.26478 -0.330878,-0.08826 -0.631931,-0.17652 -0.631931,-0.26478 0,-0.08826 0.301053,-0.17652 0.631931,-0.26478 0.330878,-0.08826 0.631931,-0.17652 0.631931,-0.26478 0,-0.08826 -0.301053,-0.176521 -0.631931,-0.264781 -0.330878,-0.08826 -0.631931,-0.17652 -0.631931,-0.26478 0,-0.08826 0.301053,-0.17652 0.631931,-0.26478 0.330878,-0.08826 0.631931,-0.17652 0.631931,-0.26478 0,-0.08826 -0.301053,-0.17652 -0.631931,-0.26478 -0.330878,-0.08826 -0.631931,-0.17652 -0.631931,-0.26478 0,-0.08826 0.301053,-0.17652 0.631931,-0.26478 0.330878,-0.08826 0.631931,-0.17652 0.631931,-0.26478 0,-0.08826 -0.301053,-0.17652 -0.631931,-0.26478"
         title="sin(x)"
         id="path1115-2" />
      <g
         id="g1352">
        <path
           id="path1115"
           title="sin(x)"
           d="m 84.45996,96.743465 c -0.330878,-0.08826 -0.631931,-0.17652 -0.631931,-0.26478 0,-0.08826 0.301053,-0.17652 0.631931,-0.26478 0.330878,-0.08826 0.631931,-0.17652 0.631931,-0.26478 0,-0.08826 -0.301053,-0.17652 -0.631931,-0.26478 -0.330878,-0.08826 -0.631931,-0.17652 -0.631931,-0.26478 0,-0.08826 0.301053,-0.17652 0.631931,-0.26478 0.330878,-0.08826 0.631931,-0.17652 0.631931,-0.26478 0,-0.08826 -0.301053,-0.17652 -0.631931,-0.26478 -0.330878,-0.08826 -0.631931,-0.17652 -0.631931,-0.26478 0,-0.08826 0.301053,-0.17652 0.631931,-0.26478 0.330878,-0.08826 0.631931,-0.17652 0.631931,-0.26478 0,-0.08826 -0.301053,-0.17652 -0.631931,-0.26478 -0.330878,-0.08826 -0.631931,-0.17652 -0.631931,-0.26478 0,-0.08826 0.301053,-0.17652 0.631931,-0.26478 0.330878,-0.08826 0.631931,-0.17652 0.631931,-0.26478 0,-0.08826 -0.301053,-0.176521 -0.631931,-0.264781 -0.330878,-0.08826 -0.631931,-0.17652 -0.631931,-0.26478 0,-0.08826 0.301053,-0.17652 0.631931,-0.26478 0.330878,-0.08826 0.631931,-0.17652 0.631931,-0.26478 0,-0.08826 -0.301053,-0.17652 -0.631931,-0.26478 -0.330878,-0.08826 -0.631931,-0.17652 -0.631931,-0.26478 0,-0.08826 0.301053,-0.17652 0.631931,-0.26478 0.330878,-0.08826 0.631931,-0.17652 0.631931,-0.26478 0,-0.08826 -0.301053,-0.17652 -0.631931,-0.26478"
           style="fill:none;fill-opacity:1;stroke:#3255a4;stroke-width:0.30000001;stroke-linecap:round;stroke-linejoin:round;stroke-miterlimit:4;stroke-dasharray:none;stroke-dashoffset:0;stroke-opacity:1"
           inkscape:connector-curvature="0" />
        <rect
           style="fill:#3255a4;fill-opacity:1;stroke:none;stroke-width:0.30000001;stroke-linecap:round;stroke-linejoin:round;stroke-miterlimit:4;stroke-dasharray:none;stroke-dashoffset:0;stroke-opacity:1"
           id="rect1145"
           width="0.20971069"
           height="0.30754444"
           x="85.030998"
           y="91.41114" />
        <rect
           style="fill:#3255a4;fill-opacity:1;stroke:none;stroke-width:0.30000001;stroke-linecap:round;stroke-linejoin:round;stroke-miterlimit:4;stroke-dasharray:none;stroke-dashoffset:0;stroke-opacity:1"
           id="rect1145-4"
           width="0.20971069"
           height="0.30754444"
           x="85.030998"
           y="92.481361" />
        <rect
           style="fill:#3255a4;fill-opacity:1;stroke:none;stroke-width:0.30000001;stroke-linecap:round;stroke-linejoin:round;stroke-miterlimit:4;stroke-dasharray:none;stroke-dashoffset:0;stroke-opacity:1"
           id="rect1145-4-1"
           width="0.20971069"
           height="0.30754444"
           x="85.030998"
           y="93.53054" />
        <rect
           style="fill:#3255a4;fill-opacity:1;stroke:none;stroke-width:0.30000001;stroke-linecap:round;stroke-linejoin:round;stroke-miterlimit:4;stroke-dasharray:none;stroke-dashoffset:0;stroke-opacity:1"
           id="rect1145-4-1-5"
           width="0.20971069"
           height="0.30754444"
           x="85.030998"
           y="94.583641" />
        <rect
           style="fill:#3255a4;fill-opacity:1;stroke:none;stroke-width:0.30000001;stroke-linecap:round;stroke-linejoin:round;stroke-miterlimit:4;stroke-dasharray:none;stroke-dashoffset:0;stroke-opacity:1"
           id="rect1145-4-1-5-2"
           width="0.20971069"
           height="0.30754444"
           x="85.031036"
           y="95.651276" />
        <rect
           style="fill:#3255a4;fill-opacity:1;stroke:none;stroke-width:0.30000001;stroke-linecap:round;stroke-linejoin:round;stroke-miterlimit:4;stroke-dasharray:none;stroke-dashoffset:0;stroke-opacity:1"
           id="rect1145-4-1-5-2-1"
           width="0.20971069"
           height="0.30754444"
           x="84.397949"
           y="96.452454" />
        <rect
           style="fill:#3255a4;fill-opacity:1;stroke:none;stroke-width:0.30000001;stroke-linecap:round;stroke-linejoin:round;stroke-miterlimit:4;stroke-dasharray:none;stroke-dashoffset:0;stroke-opacity:1"
           id="rect1145-4-1-5-2-1-8"
           width="0.20971069"
           height="0.30754444"
           x="84.309998"
           y="90.079269" />
        <rect
           style="fill:#3255a4;fill-opacity:1;stroke:none;stroke-width:0.30000001;stroke-linecap:round;stroke-linejoin:round;stroke-miterlimit:4;stroke-dasharray:none;stroke-dashoffset:0;stroke-opacity:1"
           id="rect1145-4-1-5-2-1-8-7"
           width="0.20971069"
           height="0.30754444"
           x="85.030998"
           y="90.358574" />
        <rect
           style="fill:#3255a4;fill-opacity:1;stroke:none;stroke-width:0.30000001;stroke-linecap:round;stroke-linejoin:round;stroke-miterlimit:4;stroke-dasharray:none;stroke-dashoffset:0;stroke-opacity:1"
           id="rect1145-4-1-5-2-1-8-7-8"
           width="0.20971069"
           height="0.30754444"
           x="83.67775"
           y="90.874519" />
        <rect
           style="fill:#3255a4;fill-opacity:1;stroke:none;stroke-width:0.30000001;stroke-linecap:round;stroke-linejoin:round;stroke-miterlimit:4;stroke-dasharray:none;stroke-dashoffset:0;stroke-opacity:1"
           id="rect1145-4-1-5-2-1-8-7-8-2"
           width="0.20971069"
           height="0.30754444"
           x="83.678001"
           y="91.93367" />
        <rect
           style="fill:#3255a4;fill-opacity:1;stroke:none;stroke-width:0.30000001;stroke-linecap:round;stroke-linejoin:round;stroke-miterlimit:4;stroke-dasharray:none;stroke-dashoffset:0;stroke-opacity:1"
           id="rect1145-4-1-5-2-1-8-7-8-2-7"
           width="0.20971069"
           height="0.30754444"
           x="83.678001"
           y="92.997749" />
        <rect
           style="fill:#3255a4;fill-opacity:1;stroke:none;stroke-width:0.30000001;stroke-linecap:round;stroke-linejoin:round;stroke-miterlimit:4;stroke-dasharray:none;stroke-dashoffset:0;stroke-opacity:1"
           id="rect1145-4-1-5-2-1-8-7-8-2-7-6"
           width="0.20971069"
           height="0.30754444"
           x="83.678146"
           y="94.063774" />
        <rect
           style="fill:#3255a4;fill-opacity:1;stroke:none;stroke-width:0.30000001;stroke-linecap:round;stroke-linejoin:round;stroke-miterlimit:4;stroke-dasharray:none;stroke-dashoffset:0;stroke-opacity:1"
           id="rect1145-4-1-5-2-1-8-7-8-2-7-8"
           width="0.20971069"
           height="0.30754444"
           x="83.678146"
           y="95.121078" />
        <rect
           style="fill:#3255a4;fill-opacity:1;stroke:none;stroke-width:0.30000001;stroke-linecap:round;stroke-linejoin:round;stroke-miterlimit:4;stroke-dasharray:none;stroke-dashoffset:0;stroke-opacity:1"
           id="rect1145-4-1-5-2-1-8-7-8-2-7-8-1"
           width="0.20971069"
           height="0.30754444"
           x="83.678001"
           y="96.174248" />
      </g>
    </g>
    <text
       xml:space="preserve"
       style="font-style:normal;font-variant:normal;font-weight:bold;font-stretch:normal;font-size:10.58333302px;line-height:125%;font-family:Carlito;-inkscape-font-specification:'Carlito, Bold';font-variant-ligatures:normal;font-variant-caps:normal;font-variant-numeric:normal;font-feature-settings:normal;text-align:start;letter-spacing:0px;word-spacing:0px;writing-mode:lr-tb;text-anchor:start;fill:#3255a4;fill-opacity:1;stroke:none;stroke-width:0.26458332px;stroke-linecap:butt;stroke-linejoin:miter;stroke-opacity:1"
       x="45.646324"
       y="92.529572"
       id="text817"><tspan
         sodipodi:role="line"
         id="tspan815"
         x="45.646324"
         y="92.529572"
         style="font-style:normal;font-variant:normal;font-weight:bold;font-stretch:normal;font-size:10.58333302px;font-family:Carlito;-inkscape-font-specification:'Carlito, Bold';font-variant-ligatures:normal;font-variant-caps:normal;font-variant-numeric:normal;font-feature-settings:normal;text-align:start;writing-mode:lr-tb;text-anchor:start;fill:#3255a4;fill-opacity:1;stroke-width:0.26458332px">PS</tspan></text>
    <text
       xml:space="preserve"
       style="font-style:normal;font-variant:normal;font-weight:normal;font-stretch:normal;font-size:10.58333302px;line-height:1.25;font-family:Carlito;-inkscape-font-specification:Carlito;letter-spacing:0px;word-spacing:0px;fill:#ffffff;fill-opacity:1;stroke:none;stroke-width:0.26458332"
       x="61.835484"
       y="86.34626"
       id="text3898"><tspan
         sodipodi:role="line"
         id="tspan3896"
         x="61.835484"
         y="95.606674"
         style="font-style:normal;font-variant:normal;font-weight:normal;font-stretch:normal;font-family:Carlito;-inkscape-font-specification:Carlito;fill:#ffffff;stroke-width:0.26458332" /></text>
    <text
       xml:space="preserve"
       style="font-style:normal;font-variant:normal;font-weight:normal;font-stretch:normal;font-size:10.58333302px;line-height:1.25;font-family:Carlito;-inkscape-font-specification:Carlito;letter-spacing:0px;word-spacing:0px;fill:#ffffff;fill-opacity:0;stroke:#ffffff;stroke-width:0.26458332"
       x="63.262035"
       y="90.204956"
       id="text3902"><tspan
         sodipodi:role="line"
         id="tspan3900"
         x="63.262035"
         y="99.46537"
         style="font-style:normal;font-variant:normal;font-weight:normal;font-stretch:normal;font-family:Carlito;-inkscape-font-specification:Carlito;fill:#ffffff;fill-opacity:0;stroke:#ffffff;stroke-width:0.26458332" /></text>
    <text
       xml:space="preserve"
       style="font-style:normal;font-variant:normal;font-weight:normal;font-stretch:normal;font-size:10.58333302px;line-height:1.25;font-family:Carlito;-inkscape-font-specification:Carlito;letter-spacing:0px;word-spacing:0px;fill:#ffffff;fill-opacity:1;stroke:none;stroke-width:0.26458332"
       x="64.127327"
       y="89.994492"
       id="text4715"><tspan
         sodipodi:role="line"
         id="tspan4713"
         x="64.127327"
         y="99.254906"
         style="font-style:normal;font-variant:normal;font-weight:normal;font-stretch:normal;font-family:Carlito;-inkscape-font-specification:Carlito;fill:#ffffff;stroke-width:0.26458332" /></text>
    <g
       transform="translate(-15.361974,-10.843041)"
       aria-label="PRED"
       style="font-style:normal;font-weight:normal;font-size:10.58333302px;line-height:1.25;font-family:sans-serif;letter-spacing:0px;word-spacing:0px;fill:#000000;fill-opacity:1;stroke:none;stroke-width:0.26458332"
       id="text4719">
      <path
         id="path4727"
         style="font-style:normal;font-variant:normal;font-weight:bold;font-stretch:normal;font-family:Carlito;-inkscape-font-specification:Carlito;fill:#3255a4;fill-opacity:1;stroke-width:0.26458332"
         d="m 98.20024,99.92673 c 0,0.50299 -0.07924,0.96635 -0.237711,1.3901 -0.158475,0.4203 -0.384129,0.78203 -0.676962,1.0852 -0.289388,0.30317 -0.639065,0.53916 -1.049031,0.70797 -0.409967,0.16881 -0.864719,0.25321 -1.364258,0.25321 h -2.501139 v -6.862627 h 2.501139 c 0.499539,0 0.954291,0.0844 1.364258,0.253214 0.409966,0.16881 0.759643,0.404799 1.049031,0.707967 0.292833,0.303169 0.518487,0.664904 0.676962,1.085205 0.158474,0.420302 0.237711,0.880222 0.237711,1.379761 z m -1.37976,0 c 0,-0.36518 -0.04479,-0.692464 -0.134359,-0.981852 -0.08957,-0.289388 -0.218764,-0.535712 -0.387573,-0.738973 -0.165365,-0.203261 -0.368625,-0.35829 -0.609782,-0.465088 -0.241157,-0.110243 -0.513319,-0.165365 -0.816488,-0.165365 h -1.136881 v 4.707728 h 1.136881 c 0.303169,0 0.575331,-0.0534 0.816488,-0.1602 0.241157,-0.1068 0.444417,-0.26183 0.609782,-0.46509 0.168809,-0.20326 0.298,-0.44958 0.387573,-0.73897 0.08957,-0.29283 0.134359,-0.62356 0.134359,-0.99219 z m -5.420858,-3.426147 v 1.080037 h -2.821533 v 1.813843 h 1.295012 l 0.0083,1.038697 h -1.30328 v 1.85002 h 2.826701 l -0.0052,1.08003 H 87.2138 v -6.862627 z m -8.774658,4.221967 v 2.64066 h -1.364257 v -6.862627 h 2.067057 c 0.458197,0 0.850938,0.04995 1.178222,0.149861 0.327285,0.09646 0.59428,0.232544 0.800985,0.408244 0.210151,0.1757 0.363457,0.385851 0.45992,0.630452 0.09646,0.244602 0.144694,0.51332 0.144694,0.806153 0,0.223931 -0.03101,0.437527 -0.09302,0.640788 -0.06201,0.199815 -0.153308,0.384128 -0.273885,0.552937 -0.117133,0.165365 -0.261827,0.313502 -0.434082,0.444422 -0.172255,0.12747 -0.370348,0.23082 -0.594279,0.31005 0.08613,0.0483 0.167087,0.10683 0.242879,0.1757 0.07579,0.0655 0.146416,0.14643 0.211873,0.24288 l 1.53479,2.50114 H 85.28113 c -0.217041,0 -0.384129,-0.0913 -0.501262,-0.27388 l -1.250569,-2.13941 c -0.05168,-0.0827 -0.110247,-0.14125 -0.1757,-0.1757 -0.06201,-0.0345 -0.151586,-0.0517 -0.268717,-0.0517 z m 0,-0.966352 h 0.692465 c 0.220486,0 0.409966,-0.02928 0.56844,-0.08785 0.161919,-0.05857 0.294556,-0.139526 0.397909,-0.242879 0.103353,-0.103353 0.179145,-0.225654 0.227376,-0.366903 0.05167,-0.144694 0.07751,-0.301446 0.07751,-0.470256 0,-0.334174 -0.103353,-0.590833 -0.310059,-0.769978 -0.206705,-0.182591 -0.523654,-0.273886 -0.950846,-0.273886 h -0.7028 z m -5.663737,1.224732 v 2.38228 h -1.35909 v -6.862627 h 2.206584 c 0.444417,0 0.826823,0.05512 1.147217,0.165364 0.320393,0.110243 0.585666,0.26355 0.795817,0.45992 0.210151,0.192925 0.36518,0.423747 0.465087,0.692465 0.09991,0.268717 0.149862,0.563273 0.149862,0.883667 0,0.337619 -0.0534,0.645955 -0.160197,0.925008 -0.103353,0.279055 -0.261827,0.518493 -0.475423,0.718303 -0.210151,0.19981 -0.475423,0.35656 -0.795817,0.47025 -0.320394,0.11025 -0.695909,0.16537 -1.126546,0.16537 z m 0,-1.0542 h 0.847494 c 0.413411,0 0.71658,-0.108521 0.909505,-0.325562 0.192925,-0.220486 0.289388,-0.520209 0.289388,-0.899169 0,-0.354845 -0.09819,-0.635621 -0.294556,-0.842326 -0.19637,-0.210151 -0.497816,-0.315227 -0.904337,-0.315227 h -0.847494 z"
         inkscape:connector-curvature="0"
         sodipodi:nodetypes="scccsccscccsssccsccssccscccccccccccccccccsccsscccccccsccccccscccscsccccccscccscccsccscscscc" />
    </g>
    <rect
       style="opacity:1;fill:none;fill-opacity:1;stroke:#7d2d69;stroke-width:0.26499999;stroke-miterlimit:4;stroke-dasharray:none;stroke-opacity:0.00438597"
       id="rect5327"
       width="43.278275"
       height="12.095238"
       x="42.427826"
       y="83.065468" />
  </g>
</svg>
