<?xml version="1.0" encoding="UTF-8" standalone="no"?>
<!-- Created with Inkscape (http://www.inkscape.org/) -->

<svg
   xmlns:dc="http://purl.org/dc/elements/1.1/"
   xmlns:cc="http://creativecommons.org/ns#"
   xmlns:rdf="http://www.w3.org/1999/02/22-rdf-syntax-ns#"
   xmlns:svg="http://www.w3.org/2000/svg"
   xmlns="http://www.w3.org/2000/svg"
   xmlns:sodipodi="http://sodipodi.sourceforge.net/DTD/sodipodi-0.dtd"
   xmlns:inkscape="http://www.inkscape.org/namespaces/inkscape"
   sodipodi:docname="psipred_logomark.svg"
   inkscape:version="0.92.2 5c3e80d, 2017-08-06"
   id="svg8"
   version="1.1"
   viewBox="0 0 7.7645669 9.4626303"
   height="9.4626303mm"
   width="7.7645669mm">
  <sodipodi:namedview
     inkscape:window-maximized="0"
     inkscape:window-y="1"
     inkscape:window-x="35"
     inkscape:window-height="855"
     inkscape:window-width="1440"
     showgrid="false"
     inkscape:current-layer="text817"
     inkscape:document-units="mm"
     inkscape:cy="16.219348"
     inkscape:cx="44.903605"
     inkscape:zoom="8"
     inkscape:pageshadow="2"
     inkscape:pageopacity="0.0"
     borderopacity="1.0"
     bordercolor="#666666"
     pagecolor="#ffffff"
     id="base"
     inkscape:pagecheckerboard="true"
     fit-margin-top="1.3"
     fit-margin-left="1.5"
     fit-margin-right="1.5"
     fit-margin-bottom="1.3" />
  <defs
     id="defs2" />
  <metadata
     id="metadata5">
    <rdf:RDF>
      <cc:Work
         rdf:about="">
        <dc:format>image/svg+xml</dc:format>
        <dc:type
           rdf:resource="http://purl.org/dc/dcmitype/StillImage" />
        <dc:title />
      </cc:Work>
    </rdf:RDF>
  </metadata>
  <g
     inkscape:label="Layer 1"
     inkscape:groupmode="layer"
     id="layer1"
     transform="translate(-60.102576,-95.209982)">
    <g
       aria-label="P"
       style="font-style:normal;font-variant:normal;font-weight:bold;font-stretch:normal;font-size:10.58333302px;line-height:125%;font-family:Carlito;-inkscape-font-specification:'Carlito, Bold';font-variant-ligatures:normal;font-variant-caps:normal;font-variant-numeric:normal;font-feature-settings:normal;text-align:start;letter-spacing:0px;word-spacing:0px;writing-mode:lr-tb;text-anchor:start;fill:#ffffff;fill-opacity:1;stroke:none;stroke-width:0.26458332px;stroke-linecap:butt;stroke-linejoin:miter;stroke-opacity:1"
       id="text817">
      <g
         id="g1371"
         transform="matrix(1.4880454,0,0,1,-61.740455,6.6233129)">
        <path
           inkscape:connector-curvature="0"
           style="fill:none;fill-opacity:1;stroke:#ffffff;stroke-width:0.30000001;stroke-linecap:round;stroke-linejoin:round;stroke-miterlimit:4;stroke-dasharray:none;stroke-dashoffset:0;stroke-opacity:1"
           d="M 84.458931,96.449438 C 84.128053,96.361178 83.827,96.272918 83.827,96.184658 c 0,-0.08826 0.301053,-0.17652 0.631931,-0.26478 0.330878,-0.08826 0.631931,-0.17652 0.631931,-0.26478 0,-0.08826 -0.301053,-0.17652 -0.631931,-0.26478 -0.330878,-0.08826 -0.631931,-0.17652 -0.631931,-0.26478 0,-0.08826 0.301053,-0.17652 0.631931,-0.26478 0.330878,-0.08826 0.631931,-0.17652 0.631931,-0.26478 0,-0.08826 -0.301053,-0.17652 -0.631931,-0.26478 -0.330878,-0.08826 -0.631931,-0.17652 -0.631931,-0.26478 0,-0.08826 0.301053,-0.17652 0.631931,-0.26478 0.330878,-0.08826 0.631931,-0.17652 0.631931,-0.26478 0,-0.08826 -0.301053,-0.17652 -0.631931,-0.26478 -0.330878,-0.08826 -0.631931,-0.17652 -0.631931,-0.26478 0,-0.08826 0.301053,-0.17652 0.631931,-0.26478 0.330878,-0.08826 0.631931,-0.17652 0.631931,-0.26478 0,-0.08826 -0.301053,-0.176521 -0.631931,-0.264781 -0.330878,-0.08826 -0.631931,-0.17652 -0.631931,-0.26478 0,-0.08826 0.301053,-0.17652 0.631931,-0.26478 0.330878,-0.08826 0.631931,-0.17652 0.631931,-0.26478 0,-0.08826 -0.301053,-0.17652 -0.631931,-0.26478 -0.330878,-0.08826 -0.631931,-0.17652 -0.631931,-0.26478 0,-0.08826 0.301053,-0.17652 0.631931,-0.26478 0.330878,-0.08826 0.631931,-0.17652 0.631931,-0.26478 0,-0.08826 -0.301053,-0.17652 -0.631931,-0.26478"
           title="sin(x)"
           id="path1115-2" />
        <g
           id="g1352">
          <path
             id="path1115"
             title="sin(x)"
             d="m 84.45996,96.743465 c -0.330878,-0.08826 -0.631931,-0.17652 -0.631931,-0.26478 0,-0.08826 0.301053,-0.17652 0.631931,-0.26478 0.330878,-0.08826 0.631931,-0.17652 0.631931,-0.26478 0,-0.08826 -0.301053,-0.17652 -0.631931,-0.26478 -0.330878,-0.08826 -0.631931,-0.17652 -0.631931,-0.26478 0,-0.08826 0.301053,-0.17652 0.631931,-0.26478 0.330878,-0.08826 0.631931,-0.17652 0.631931,-0.26478 0,-0.08826 -0.301053,-0.17652 -0.631931,-0.26478 -0.330878,-0.08826 -0.631931,-0.17652 -0.631931,-0.26478 0,-0.08826 0.301053,-0.17652 0.631931,-0.26478 0.330878,-0.08826 0.631931,-0.17652 0.631931,-0.26478 0,-0.08826 -0.301053,-0.17652 -0.631931,-0.26478 -0.330878,-0.08826 -0.631931,-0.17652 -0.631931,-0.26478 0,-0.08826 0.301053,-0.17652 0.631931,-0.26478 0.330878,-0.08826 0.631931,-0.17652 0.631931,-0.26478 0,-0.08826 -0.301053,-0.176521 -0.631931,-0.264781 -0.330878,-0.08826 -0.631931,-0.17652 -0.631931,-0.26478 0,-0.08826 0.301053,-0.17652 0.631931,-0.26478 0.330878,-0.08826 0.631931,-0.17652 0.631931,-0.26478 0,-0.08826 -0.301053,-0.17652 -0.631931,-0.26478 -0.330878,-0.08826 -0.631931,-0.17652 -0.631931,-0.26478 0,-0.08826 0.301053,-0.17652 0.631931,-0.26478 0.330878,-0.08826 0.631931,-0.17652 0.631931,-0.26478 0,-0.08826 -0.301053,-0.17652 -0.631931,-0.26478"
             style="fill:none;fill-opacity:1;stroke:#ffffff;stroke-width:0.30000001;stroke-linecap:round;stroke-linejoin:round;stroke-miterlimit:4;stroke-dasharray:none;stroke-dashoffset:0;stroke-opacity:1"
             inkscape:connector-curvature="0" />
          <rect
             style="fill:#ffffff;fill-opacity:1;stroke:none;stroke-width:0.30000001;stroke-linecap:round;stroke-linejoin:round;stroke-miterlimit:4;stroke-dasharray:none;stroke-dashoffset:0;stroke-opacity:1"
             id="rect1145"
             width="0.20971069"
             height="0.30754444"
             x="85.030998"
             y="91.41114" />
          <rect
             style="fill:#ffffff;fill-opacity:1;stroke:none;stroke-width:0.30000001;stroke-linecap:round;stroke-linejoin:round;stroke-miterlimit:4;stroke-dasharray:none;stroke-dashoffset:0;stroke-opacity:1"
             id="rect1145-4"
             width="0.20971069"
             height="0.30754444"
             x="85.030998"
             y="92.481361" />
          <rect
             style="fill:#ffffff;fill-opacity:1;stroke:none;stroke-width:0.30000001;stroke-linecap:round;stroke-linejoin:round;stroke-miterlimit:4;stroke-dasharray:none;stroke-dashoffset:0;stroke-opacity:1"
             id="rect1145-4-1"
             width="0.20971069"
             height="0.30754444"
             x="85.030998"
             y="93.53054" />
          <rect
             style="fill:#ffffff;fill-opacity:1;stroke:none;stroke-width:0.30000001;stroke-linecap:round;stroke-linejoin:round;stroke-miterlimit:4;stroke-dasharray:none;stroke-dashoffset:0;stroke-opacity:1"
             id="rect1145-4-1-5"
             width="0.20971069"
             height="0.30754444"
             x="85.030998"
             y="94.583641" />
          <rect
             style="fill:#ffffff;fill-opacity:1;stroke:none;stroke-width:0.30000001;stroke-linecap:round;stroke-linejoin:round;stroke-miterlimit:4;stroke-dasharray:none;stroke-dashoffset:0;stroke-opacity:1"
             id="rect1145-4-1-5-2"
             width="0.20971069"
             height="0.30754444"
             x="85.031036"
             y="95.651276" />
          <rect
             style="fill:#ffffff;fill-opacity:1;stroke:none;stroke-width:0.30000001;stroke-linecap:round;stroke-linejoin:round;stroke-miterlimit:4;stroke-dasharray:none;stroke-dashoffset:0;stroke-opacity:1"
             id="rect1145-4-1-5-2-1"
             width="0.20971069"
             height="0.30754444"
             x="84.397949"
             y="96.452454" />
          <rect
             style="fill:#ffffff;fill-opacity:1;stroke:none;stroke-width:0.30000001;stroke-linecap:round;stroke-linejoin:round;stroke-miterlimit:4;stroke-dasharray:none;stroke-dashoffset:0;stroke-opacity:1"
             id="rect1145-4-1-5-2-1-8"
             width="0.20971069"
             height="0.30754444"
             x="84.309998"
             y="90.079269" />
          <rect
             style="fill:#ffffff;fill-opacity:1;stroke:none;stroke-width:0.30000001;stroke-linecap:round;stroke-linejoin:round;stroke-miterlimit:4;stroke-dasharray:none;stroke-dashoffset:0;stroke-opacity:1"
             id="rect1145-4-1-5-2-1-8-7"
             width="0.20971069"
             height="0.30754444"
             x="85.030998"
             y="90.358574" />
          <rect
             style="fill:#ffffff;fill-opacity:1;stroke:none;stroke-width:0.30000001;stroke-linecap:round;stroke-linejoin:round;stroke-miterlimit:4;stroke-dasharray:none;stroke-dashoffset:0;stroke-opacity:1"
             id="rect1145-4-1-5-2-1-8-7-8"
             width="0.20971069"
             height="0.30754444"
             x="83.67775"
             y="90.874519" />
          <rect
             style="fill:#ffffff;fill-opacity:1;stroke:none;stroke-width:0.30000001;stroke-linecap:round;stroke-linejoin:round;stroke-miterlimit:4;stroke-dasharray:none;stroke-dashoffset:0;stroke-opacity:1"
             id="rect1145-4-1-5-2-1-8-7-8-2"
             width="0.20971069"
             height="0.30754444"
             x="83.678001"
             y="91.93367" />
          <rect
             style="fill:#ffffff;fill-opacity:1;stroke:none;stroke-width:0.30000001;stroke-linecap:round;stroke-linejoin:round;stroke-miterlimit:4;stroke-dasharray:none;stroke-dashoffset:0;stroke-opacity:1"
             id="rect1145-4-1-5-2-1-8-7-8-2-7"
             width="0.20971069"
             height="0.30754444"
             x="83.678001"
             y="92.997749" />
          <rect
             style="fill:#ffffff;fill-opacity:1;stroke:none;stroke-width:0.30000001;stroke-linecap:round;stroke-linejoin:round;stroke-miterlimit:4;stroke-dasharray:none;stroke-dashoffset:0;stroke-opacity:1"
             id="rect1145-4-1-5-2-1-8-7-8-2-7-6"
             width="0.20971069"
             height="0.30754444"
             x="83.678146"
             y="94.063774" />
          <rect
             style="fill:#ffffff;fill-opacity:1;stroke:none;stroke-width:0.30000001;stroke-linecap:round;stroke-linejoin:round;stroke-miterlimit:4;stroke-dasharray:none;stroke-dashoffset:0;stroke-opacity:1"
             id="rect1145-4-1-5-2-1-8-7-8-2-7-8"
             width="0.20971069"
             height="0.30754444"
             x="83.678146"
             y="95.121078" />
          <rect
             style="fill:#ffffff;fill-opacity:1;stroke:none;stroke-width:0.30000001;stroke-linecap:round;stroke-linejoin:round;stroke-miterlimit:4;stroke-dasharray:none;stroke-dashoffset:0;stroke-opacity:1"
             id="rect1145-4-1-5-2-1-8-7-8-2-7-8-1"
             width="0.20971069"
             height="0.30754444"
             x="83.678001"
             y="96.174248" />
        </g>
      </g>
    </g>
    <text
       xml:space="preserve"
       style="font-style:normal;font-variant:normal;font-weight:normal;font-stretch:normal;font-size:10.58333302px;line-height:1.25;font-family:Carlito;-inkscape-font-specification:Carlito;letter-spacing:0px;word-spacing:0px;fill:#ffffff;fill-opacity:1;stroke:none;stroke-width:0.26458332"
       x="77.197456"
       y="97.189301"
       id="text3898"><tspan
         sodipodi:role="line"
         id="tspan3896"
         x="77.197456"
         y="106.44971"
         style="font-style:normal;font-variant:normal;font-weight:normal;font-stretch:normal;font-family:Carlito;-inkscape-font-specification:Carlito;fill:#ffffff;stroke-width:0.26458332" /></text>
    <text
       xml:space="preserve"
       style="font-style:normal;font-variant:normal;font-weight:normal;font-stretch:normal;font-size:10.58333302px;line-height:1.25;font-family:Carlito;-inkscape-font-specification:Carlito;letter-spacing:0px;word-spacing:0px;fill:#ffffff;fill-opacity:0;stroke:#ffffff;stroke-width:0.26458332"
       x="78.624008"
       y="101.048"
       id="text3902"><tspan
         sodipodi:role="line"
         id="tspan3900"
         x="78.624008"
         y="110.30841"
         style="font-style:normal;font-variant:normal;font-weight:normal;font-stretch:normal;font-family:Carlito;-inkscape-font-specification:Carlito;fill:#ffffff;fill-opacity:0;stroke:#ffffff;stroke-width:0.26458332" /></text>
    <text
       xml:space="preserve"
       style="font-style:normal;font-variant:normal;font-weight:normal;font-stretch:normal;font-size:10.58333302px;line-height:1.25;font-family:Carlito;-inkscape-font-specification:Carlito;letter-spacing:0px;word-spacing:0px;fill:#ffffff;fill-opacity:1;stroke:none;stroke-width:0.26458332"
       x="79.489296"
       y="100.83753"
       id="text4715"><tspan
         sodipodi:role="line"
         id="tspan4713"
         x="79.489296"
         y="110.09795"
         style="font-style:normal;font-variant:normal;font-weight:normal;font-stretch:normal;font-family:Carlito;-inkscape-font-specification:Carlito;fill:#ffffff;stroke-width:0.26458332" /></text>
  </g>
</svg>
